<mxfile host="app.diagrams.net" agent="Mozilla/5.0 (Windows NT 10.0; Win64; x64) AppleWebKit/537.36 (KHTML, like Gecko) Chrome/129.0.0.0 Safari/537.36" version="24.7.17">
  <diagram name="Seite-1" id="BTphIldE6bbO_cXO-Jw7">
    <mxGraphModel dx="1674" dy="746" grid="1" gridSize="10" guides="1" tooltips="1" connect="1" arrows="1" fold="1" page="1" pageScale="1" pageWidth="827" pageHeight="1169" math="0" shadow="0">
      <root>
        <mxCell id="0" />
        <mxCell id="1" parent="0" />
        <mxCell id="68CNgsPysHv9A_S6L-0B-2" value="User Activities" style="rounded=0;whiteSpace=wrap;html=1;" parent="1" vertex="1">
          <mxGeometry x="160" y="80" width="160" height="40" as="geometry" />
        </mxCell>
        <mxCell id="68CNgsPysHv9A_S6L-0B-3" value="" style="edgeStyle=orthogonalEdgeStyle;rounded=0;orthogonalLoop=1;jettySize=auto;html=1;" parent="1" edge="1">
          <mxGeometry relative="1" as="geometry">
            <Array as="points">
              <mxPoint x="640" y="150" />
              <mxPoint x="640" y="150" />
            </Array>
            <mxPoint x="640" y="120" as="sourcePoint" />
            <mxPoint x="640" y="200" as="targetPoint" />
          </mxGeometry>
        </mxCell>
        <mxCell id="68CNgsPysHv9A_S6L-0B-4" value="" style="edgeStyle=orthogonalEdgeStyle;rounded=0;orthogonalLoop=1;jettySize=auto;html=1;" parent="1" source="68CNgsPysHv9A_S6L-0B-5" target="68CNgsPysHv9A_S6L-0B-7" edge="1">
          <mxGeometry relative="1" as="geometry" />
        </mxCell>
        <mxCell id="68CNgsPysHv9A_S6L-0B-5" value="" style="ellipse;whiteSpace=wrap;html=1;aspect=fixed;fillColor=#1A1A1A;" parent="1" vertex="1">
          <mxGeometry x="225" y="140" width="30" height="30" as="geometry" />
        </mxCell>
        <mxCell id="68CNgsPysHv9A_S6L-0B-6" value="" style="edgeStyle=orthogonalEdgeStyle;rounded=0;orthogonalLoop=1;jettySize=auto;html=1;" parent="1" source="68CNgsPysHv9A_S6L-0B-7" target="68CNgsPysHv9A_S6L-0B-9" edge="1">
          <mxGeometry relative="1" as="geometry" />
        </mxCell>
        <mxCell id="68CNgsPysHv9A_S6L-0B-7" value="Open Home Page" style="whiteSpace=wrap;html=1;" parent="1" vertex="1">
          <mxGeometry x="180" y="205" width="120" height="45" as="geometry" />
        </mxCell>
        <mxCell id="68CNgsPysHv9A_S6L-0B-8" value="" style="edgeStyle=orthogonalEdgeStyle;rounded=0;orthogonalLoop=1;jettySize=auto;html=1;" parent="1" source="68CNgsPysHv9A_S6L-0B-9" target="68CNgsPysHv9A_S6L-0B-10" edge="1">
          <mxGeometry relative="1" as="geometry" />
        </mxCell>
        <mxCell id="68CNgsPysHv9A_S6L-0B-9" value="View log in Option" style="whiteSpace=wrap;html=1;" parent="1" vertex="1">
          <mxGeometry x="180" y="280" width="120" height="40" as="geometry" />
        </mxCell>
        <mxCell id="68CNgsPysHv9A_S6L-0B-10" value="Log In" style="whiteSpace=wrap;html=1;" parent="1" vertex="1">
          <mxGeometry x="180" y="350" width="120" height="40" as="geometry" />
        </mxCell>
        <mxCell id="68CNgsPysHv9A_S6L-0B-11" value="" style="edgeStyle=orthogonalEdgeStyle;rounded=0;orthogonalLoop=1;jettySize=auto;html=1;" parent="1" source="68CNgsPysHv9A_S6L-0B-12" target="68CNgsPysHv9A_S6L-0B-16" edge="1">
          <mxGeometry relative="1" as="geometry" />
        </mxCell>
        <mxCell id="68CNgsPysHv9A_S6L-0B-12" value="No" style="whiteSpace=wrap;html=1;" parent="1" vertex="1">
          <mxGeometry x="280" y="530" width="70" height="50" as="geometry" />
        </mxCell>
        <mxCell id="68CNgsPysHv9A_S6L-0B-13" value="" style="edgeStyle=orthogonalEdgeStyle;rounded=0;orthogonalLoop=1;jettySize=auto;html=1;" parent="1" source="68CNgsPysHv9A_S6L-0B-14" target="68CNgsPysHv9A_S6L-0B-15" edge="1">
          <mxGeometry relative="1" as="geometry" />
        </mxCell>
        <mxCell id="68CNgsPysHv9A_S6L-0B-14" value="Yes" style="whiteSpace=wrap;html=1;" parent="1" vertex="1">
          <mxGeometry x="150" y="530" width="65" height="50" as="geometry" />
        </mxCell>
        <mxCell id="68CNgsPysHv9A_S6L-0B-15" value="View Menu" style="whiteSpace=wrap;html=1;" parent="1" vertex="1">
          <mxGeometry x="150" y="600" width="65" height="50" as="geometry" />
        </mxCell>
        <mxCell id="68CNgsPysHv9A_S6L-0B-16" value="Show Error Message!" style="whiteSpace=wrap;html=1;" parent="1" vertex="1">
          <mxGeometry x="280" y="600" width="70" height="50" as="geometry" />
        </mxCell>
        <mxCell id="68CNgsPysHv9A_S6L-0B-17" value="" style="edgeStyle=orthogonalEdgeStyle;rounded=0;orthogonalLoop=1;jettySize=auto;html=1;" parent="1" target="68CNgsPysHv9A_S6L-0B-20" edge="1">
          <mxGeometry relative="1" as="geometry">
            <mxPoint x="182.5" y="730" as="sourcePoint" />
          </mxGeometry>
        </mxCell>
        <mxCell id="68CNgsPysHv9A_S6L-0B-18" style="edgeStyle=orthogonalEdgeStyle;rounded=0;orthogonalLoop=1;jettySize=auto;html=1;exitX=0.5;exitY=1;exitDx=0;exitDy=0;" parent="1" edge="1">
          <mxGeometry relative="1" as="geometry">
            <mxPoint x="540" y="450" as="sourcePoint" />
            <mxPoint x="540" y="450" as="targetPoint" />
          </mxGeometry>
        </mxCell>
        <mxCell id="68CNgsPysHv9A_S6L-0B-19" value="" style="edgeStyle=orthogonalEdgeStyle;rounded=0;orthogonalLoop=1;jettySize=auto;html=1;" parent="1" source="68CNgsPysHv9A_S6L-0B-20" target="68CNgsPysHv9A_S6L-0B-22" edge="1">
          <mxGeometry relative="1" as="geometry" />
        </mxCell>
        <mxCell id="68CNgsPysHv9A_S6L-0B-20" value="Search for Spots" style="whiteSpace=wrap;html=1;" parent="1" vertex="1">
          <mxGeometry x="150" y="680" width="65" height="50" as="geometry" />
        </mxCell>
        <mxCell id="68CNgsPysHv9A_S6L-0B-21" value="" style="edgeStyle=orthogonalEdgeStyle;rounded=0;orthogonalLoop=1;jettySize=auto;html=1;" parent="1" source="68CNgsPysHv9A_S6L-0B-22" target="68CNgsPysHv9A_S6L-0B-23" edge="1">
          <mxGeometry relative="1" as="geometry" />
        </mxCell>
        <mxCell id="68CNgsPysHv9A_S6L-0B-22" value="View Latest Spots" style="whiteSpace=wrap;html=1;" parent="1" vertex="1">
          <mxGeometry x="150" y="750" width="65" height="50" as="geometry" />
        </mxCell>
        <mxCell id="68CNgsPysHv9A_S6L-0B-23" value="Select a Spot" style="whiteSpace=wrap;html=1;" parent="1" vertex="1">
          <mxGeometry x="150" y="830" width="65" height="50" as="geometry" />
        </mxCell>
        <mxCell id="68CNgsPysHv9A_S6L-0B-24" value="" style="ellipse;html=1;shape=endState;fillColor=#000000;strokeColor=#ff0000;" parent="1" vertex="1">
          <mxGeometry x="167.5" y="910" width="30" height="30" as="geometry" />
        </mxCell>
        <mxCell id="68CNgsPysHv9A_S6L-0B-25" value="" style="edgeStyle=orthogonalEdgeStyle;rounded=0;orthogonalLoop=1;jettySize=auto;html=1;" parent="1" edge="1">
          <mxGeometry relative="1" as="geometry">
            <mxPoint x="640" y="250" as="sourcePoint" />
            <mxPoint x="640" y="275" as="targetPoint" />
          </mxGeometry>
        </mxCell>
        <mxCell id="68CNgsPysHv9A_S6L-0B-26" value="" style="endArrow=classic;html=1;rounded=0;entryX=1;entryY=0.25;entryDx=0;entryDy=0;exitX=-0.007;exitY=0.36;exitDx=0;exitDy=0;exitPerimeter=0;" parent="1" target="68CNgsPysHv9A_S6L-0B-7" edge="1">
          <mxGeometry width="50" height="50" relative="1" as="geometry">
            <mxPoint x="579" y="218" as="sourcePoint" />
            <mxPoint x="440" y="290" as="targetPoint" />
          </mxGeometry>
        </mxCell>
        <mxCell id="68CNgsPysHv9A_S6L-0B-27" value="" style="endArrow=classic;html=1;rounded=0;exitX=0;exitY=0.5;exitDx=0;exitDy=0;entryX=1;entryY=0.5;entryDx=0;entryDy=0;" parent="1" target="68CNgsPysHv9A_S6L-0B-9" edge="1">
          <mxGeometry width="50" height="50" relative="1" as="geometry">
            <mxPoint x="580" y="300" as="sourcePoint" />
            <mxPoint x="440" y="290" as="targetPoint" />
          </mxGeometry>
        </mxCell>
        <mxCell id="68CNgsPysHv9A_S6L-0B-28" value="" style="endArrow=classic;html=1;rounded=0;exitX=0.5;exitY=1;exitDx=0;exitDy=0;entryX=0.5;entryY=0;entryDx=0;entryDy=0;" parent="1" source="68CNgsPysHv9A_S6L-0B-15" target="68CNgsPysHv9A_S6L-0B-20" edge="1">
          <mxGeometry width="50" height="50" relative="1" as="geometry">
            <mxPoint x="250" y="710" as="sourcePoint" />
            <mxPoint x="340" y="710" as="targetPoint" />
          </mxGeometry>
        </mxCell>
        <mxCell id="68CNgsPysHv9A_S6L-0B-29" value="" style="endArrow=classic;html=1;rounded=0;exitX=0.5;exitY=1;exitDx=0;exitDy=0;entryX=0.5;entryY=0;entryDx=0;entryDy=0;" parent="1" source="68CNgsPysHv9A_S6L-0B-23" target="68CNgsPysHv9A_S6L-0B-24" edge="1">
          <mxGeometry width="50" height="50" relative="1" as="geometry">
            <mxPoint x="10" y="970" as="sourcePoint" />
            <mxPoint x="267.5" y="910" as="targetPoint" />
          </mxGeometry>
        </mxCell>
        <mxCell id="W2C030SJba9mZZKaXuLO-1" value="User Activities" style="rounded=0;whiteSpace=wrap;html=1;" vertex="1" parent="1">
          <mxGeometry x="200" y="980" width="160" height="40" as="geometry" />
        </mxCell>
        <mxCell id="W2C030SJba9mZZKaXuLO-2" value="" style="edgeStyle=orthogonalEdgeStyle;rounded=0;orthogonalLoop=1;jettySize=auto;html=1;" edge="1" parent="1">
          <mxGeometry relative="1" as="geometry">
            <Array as="points">
              <mxPoint x="680" y="1050" />
              <mxPoint x="680" y="1050" />
            </Array>
            <mxPoint x="680" y="1020" as="sourcePoint" />
            <mxPoint x="680" y="1100" as="targetPoint" />
          </mxGeometry>
        </mxCell>
        <mxCell id="W2C030SJba9mZZKaXuLO-3" value="" style="edgeStyle=orthogonalEdgeStyle;rounded=0;orthogonalLoop=1;jettySize=auto;html=1;" edge="1" parent="1" source="W2C030SJba9mZZKaXuLO-4" target="W2C030SJba9mZZKaXuLO-6">
          <mxGeometry relative="1" as="geometry" />
        </mxCell>
        <mxCell id="W2C030SJba9mZZKaXuLO-4" value="" style="ellipse;whiteSpace=wrap;html=1;aspect=fixed;fillColor=#1A1A1A;" vertex="1" parent="1">
          <mxGeometry x="265" y="1040" width="30" height="30" as="geometry" />
        </mxCell>
        <mxCell id="W2C030SJba9mZZKaXuLO-5" value="" style="edgeStyle=orthogonalEdgeStyle;rounded=0;orthogonalLoop=1;jettySize=auto;html=1;" edge="1" parent="1" source="W2C030SJba9mZZKaXuLO-6" target="W2C030SJba9mZZKaXuLO-8">
          <mxGeometry relative="1" as="geometry" />
        </mxCell>
        <mxCell id="W2C030SJba9mZZKaXuLO-6" value="Open Home Page" style="whiteSpace=wrap;html=1;" vertex="1" parent="1">
          <mxGeometry x="220" y="1105" width="120" height="45" as="geometry" />
        </mxCell>
        <mxCell id="W2C030SJba9mZZKaXuLO-7" value="" style="edgeStyle=orthogonalEdgeStyle;rounded=0;orthogonalLoop=1;jettySize=auto;html=1;" edge="1" parent="1" source="W2C030SJba9mZZKaXuLO-8" target="W2C030SJba9mZZKaXuLO-9">
          <mxGeometry relative="1" as="geometry" />
        </mxCell>
        <mxCell id="W2C030SJba9mZZKaXuLO-8" value="View log in Option" style="whiteSpace=wrap;html=1;" vertex="1" parent="1">
          <mxGeometry x="220" y="1180" width="120" height="40" as="geometry" />
        </mxCell>
        <mxCell id="W2C030SJba9mZZKaXuLO-9" value="Log In" style="whiteSpace=wrap;html=1;" vertex="1" parent="1">
          <mxGeometry x="220" y="1250" width="120" height="40" as="geometry" />
        </mxCell>
        <mxCell id="W2C030SJba9mZZKaXuLO-10" value="" style="edgeStyle=orthogonalEdgeStyle;rounded=0;orthogonalLoop=1;jettySize=auto;html=1;" edge="1" parent="1" source="W2C030SJba9mZZKaXuLO-11" target="W2C030SJba9mZZKaXuLO-15">
          <mxGeometry relative="1" as="geometry" />
        </mxCell>
        <mxCell id="W2C030SJba9mZZKaXuLO-11" value="No" style="whiteSpace=wrap;html=1;" vertex="1" parent="1">
          <mxGeometry x="320" y="1430" width="70" height="50" as="geometry" />
        </mxCell>
        <mxCell id="W2C030SJba9mZZKaXuLO-12" value="" style="edgeStyle=orthogonalEdgeStyle;rounded=0;orthogonalLoop=1;jettySize=auto;html=1;" edge="1" parent="1" source="W2C030SJba9mZZKaXuLO-13" target="W2C030SJba9mZZKaXuLO-14">
          <mxGeometry relative="1" as="geometry" />
        </mxCell>
        <mxCell id="W2C030SJba9mZZKaXuLO-13" value="Yes" style="whiteSpace=wrap;html=1;" vertex="1" parent="1">
          <mxGeometry x="190" y="1430" width="65" height="50" as="geometry" />
        </mxCell>
        <mxCell id="W2C030SJba9mZZKaXuLO-14" value="View Menu" style="whiteSpace=wrap;html=1;" vertex="1" parent="1">
          <mxGeometry x="190" y="1500" width="65" height="50" as="geometry" />
        </mxCell>
        <mxCell id="W2C030SJba9mZZKaXuLO-15" value="Show Error Message!" style="whiteSpace=wrap;html=1;" vertex="1" parent="1">
          <mxGeometry x="320" y="1500" width="70" height="50" as="geometry" />
        </mxCell>
        <mxCell id="W2C030SJba9mZZKaXuLO-16" value="" style="edgeStyle=orthogonalEdgeStyle;rounded=0;orthogonalLoop=1;jettySize=auto;html=1;" edge="1" parent="1" target="W2C030SJba9mZZKaXuLO-19">
          <mxGeometry relative="1" as="geometry">
            <mxPoint x="222.5" y="1630" as="sourcePoint" />
          </mxGeometry>
        </mxCell>
        <mxCell id="W2C030SJba9mZZKaXuLO-17" style="edgeStyle=orthogonalEdgeStyle;rounded=0;orthogonalLoop=1;jettySize=auto;html=1;exitX=0.5;exitY=1;exitDx=0;exitDy=0;" edge="1" parent="1">
          <mxGeometry relative="1" as="geometry">
            <mxPoint x="580" y="1350" as="sourcePoint" />
            <mxPoint x="580" y="1350" as="targetPoint" />
          </mxGeometry>
        </mxCell>
        <mxCell id="W2C030SJba9mZZKaXuLO-18" value="" style="edgeStyle=orthogonalEdgeStyle;rounded=0;orthogonalLoop=1;jettySize=auto;html=1;" edge="1" parent="1" source="W2C030SJba9mZZKaXuLO-19" target="W2C030SJba9mZZKaXuLO-21">
          <mxGeometry relative="1" as="geometry" />
        </mxCell>
        <mxCell id="W2C030SJba9mZZKaXuLO-19" value="Search for Spots" style="whiteSpace=wrap;html=1;" vertex="1" parent="1">
          <mxGeometry x="190" y="1580" width="65" height="50" as="geometry" />
        </mxCell>
        <mxCell id="W2C030SJba9mZZKaXuLO-20" value="" style="edgeStyle=orthogonalEdgeStyle;rounded=0;orthogonalLoop=1;jettySize=auto;html=1;" edge="1" parent="1" source="W2C030SJba9mZZKaXuLO-21" target="W2C030SJba9mZZKaXuLO-22">
          <mxGeometry relative="1" as="geometry" />
        </mxCell>
        <mxCell id="W2C030SJba9mZZKaXuLO-21" value="View Latest Spots" style="whiteSpace=wrap;html=1;" vertex="1" parent="1">
          <mxGeometry x="190" y="1650" width="65" height="50" as="geometry" />
        </mxCell>
        <mxCell id="W2C030SJba9mZZKaXuLO-22" value="Select a Spot" style="whiteSpace=wrap;html=1;" vertex="1" parent="1">
          <mxGeometry x="190" y="1730" width="65" height="50" as="geometry" />
        </mxCell>
        <mxCell id="W2C030SJba9mZZKaXuLO-23" value="" style="ellipse;html=1;shape=endState;fillColor=#000000;strokeColor=#ff0000;" vertex="1" parent="1">
          <mxGeometry x="207.5" y="1810" width="30" height="30" as="geometry" />
        </mxCell>
        <mxCell id="W2C030SJba9mZZKaXuLO-24" value="" style="edgeStyle=orthogonalEdgeStyle;rounded=0;orthogonalLoop=1;jettySize=auto;html=1;" edge="1" parent="1">
          <mxGeometry relative="1" as="geometry">
            <mxPoint x="680" y="1150" as="sourcePoint" />
            <mxPoint x="680" y="1175" as="targetPoint" />
          </mxGeometry>
        </mxCell>
        <mxCell id="W2C030SJba9mZZKaXuLO-25" value="" style="endArrow=classic;html=1;rounded=0;entryX=1;entryY=0.25;entryDx=0;entryDy=0;exitX=-0.007;exitY=0.36;exitDx=0;exitDy=0;exitPerimeter=0;" edge="1" parent="1" target="W2C030SJba9mZZKaXuLO-6">
          <mxGeometry width="50" height="50" relative="1" as="geometry">
            <mxPoint x="619" y="1118" as="sourcePoint" />
            <mxPoint x="480" y="1190" as="targetPoint" />
          </mxGeometry>
        </mxCell>
        <mxCell id="W2C030SJba9mZZKaXuLO-26" value="" style="endArrow=classic;html=1;rounded=0;exitX=0;exitY=0.5;exitDx=0;exitDy=0;entryX=1;entryY=0.5;entryDx=0;entryDy=0;" edge="1" parent="1" target="W2C030SJba9mZZKaXuLO-8">
          <mxGeometry width="50" height="50" relative="1" as="geometry">
            <mxPoint x="620" y="1200" as="sourcePoint" />
            <mxPoint x="480" y="1190" as="targetPoint" />
          </mxGeometry>
        </mxCell>
        <mxCell id="W2C030SJba9mZZKaXuLO-27" value="" style="endArrow=classic;html=1;rounded=0;exitX=0.5;exitY=1;exitDx=0;exitDy=0;entryX=0.5;entryY=0;entryDx=0;entryDy=0;" edge="1" parent="1" source="W2C030SJba9mZZKaXuLO-14" target="W2C030SJba9mZZKaXuLO-19">
          <mxGeometry width="50" height="50" relative="1" as="geometry">
            <mxPoint x="290" y="1610" as="sourcePoint" />
            <mxPoint x="380" y="1610" as="targetPoint" />
          </mxGeometry>
        </mxCell>
        <mxCell id="W2C030SJba9mZZKaXuLO-28" value="" style="endArrow=classic;html=1;rounded=0;exitX=0.5;exitY=1;exitDx=0;exitDy=0;entryX=0.5;entryY=0;entryDx=0;entryDy=0;" edge="1" parent="1" source="W2C030SJba9mZZKaXuLO-22" target="W2C030SJba9mZZKaXuLO-23">
          <mxGeometry width="50" height="50" relative="1" as="geometry">
            <mxPoint x="50" y="1870" as="sourcePoint" />
            <mxPoint x="307.5" y="1810" as="targetPoint" />
          </mxGeometry>
        </mxCell>
      </root>
    </mxGraphModel>
  </diagram>
</mxfile>
